<?xml version="1.0" encoding="utf-8"?>
<!-- Generator: Adobe Illustrator 22.0.0, SVG Export Plug-In . SVG Version: 6.00 Build 0)  -->
<svg version="1.1" id="Layer_1" xmlns="http://www.w3.org/2000/svg" xmlns:xlink="http://www.w3.org/1999/xlink" x="0px" y="0px"
	 viewBox="0 0 594 604.4" style="enable-background:new 0 0 594 604.4;" xml:space="preserve">
<style type="text/css">
	.st0{fill:#F490AA;}
	.st1{fill:#EE4B6B;}
</style>
<path class="st0" d="M594,127.6V4.5c0,0-38.9,58.6-235.4,37.2C18,4.5-1,127.6-1,127.6h1.1c-0.9,2.6-1.1,4.1-1.1,4.1v196.1v166.5
	v114.6h595V494.3h0V327.8V131.8h0L594,127.6L594,127.6z"/>
<path class="st1" d="M594,136.1V13c0,0-38.8,58.6-235,37.2C19,13,0,136.1,0,136.1h1.1c-0.9,2.6-1.1,4.1-1.1,4.1v196.1v166.5v114.6
	h594V502.8h0V336.4V140.3h0L594,136.1L594,136.1z"/>
</svg>
