<svg id="Layer_1" data-name="Layer 1" xmlns="http://www.w3.org/2000/svg" viewBox="0 0 244.6 408.29"><defs><style>.cls-1{fill:#d8395f;}.cls-2{fill:#ee4b6b;}</style></defs><title>nutt-logo</title><path class="cls-1" d="M354.1,214.9a10.35,10.35,0,0,1-6.4,2.2,10.24,10.24,0,0,1-7.1-2.9L304,178.8,269.3,214a10.38,10.38,0,0,1-7.3,3v-.2a10.21,10.21,0,0,1-7.3-3L220,178.6,183.4,214a10.26,10.26,0,0,1-13.5.7l-20.65-16.41c.47,25.74,9.72,50.38,27.05,71.41,19.5,23.6,48.5,42.7,82.8,53.7a10.47,10.47,0,0,0,3,.5,8.73,8.73,0,0,0,3.1-.5c33.7-11.1,63.8-30.2,83.5-54,17.85-21.5,27.32-46.4,27.58-72.12Z" transform="translate(-139.7 -47.7)"/><path class="cls-2" d="M272.2,73V57.9c0-.35,0-.7-.05-1A10.07,10.07,0,0,0,270,51.54l-.08-.12c-.13-.16-.28-.31-.42-.46s-.16-.19-.25-.28l-.28-.25c-.15-.14-.3-.29-.46-.42l-.12-.08A10.07,10.07,0,0,0,263,47.75c-.34,0-.69,0-1,0a10.18,10.18,0,0,0-10.2,10.2V73c-61.37,5.14-110,55.37-112.1,117.66l9.55,7.59L169.9,214.7a10.26,10.26,0,0,0,13.5-.7L220,178.6l34.7,35.2a10.21,10.21,0,0,0,7.3,3v.2a10.38,10.38,0,0,0,7.3-3L304,178.8l36.6,35.4a10.24,10.24,0,0,0,7.1,2.9,10.35,10.35,0,0,0,6.4-2.2l22.18-17.62,8-6.38A122.24,122.24,0,0,0,272.2,73Z" transform="translate(-139.7 -47.7)"/><path class="cls-1" d="M180.44,367.11c4.15-7.12,8.9-13.84,18.39-11.47,6.92,1.78,10.68,6.53,10.68,14.24.2,12.26,0,24.52-.2,36.78-.2,9.69-.79,19.38-1.18,29.26-.2,6.53,3.16,6.92,6.92,2,6.92-9.69,12.85-20.57,16-32a15.66,15.66,0,0,1,.79-2.18c.6-1.38,1.59-2.57,3.37-2.17a3.21,3.21,0,0,1,3,3.16,10.54,10.54,0,0,1-.39,4.94,114.16,114.16,0,0,1-11.87,26.5c-4.15,6.92-8.11,16.21-16.21,18.59-19.38,5.73-21.16-19.18-21.56-30.65-.39-7.32,2.38-46.27,1.59-54a2.54,2.54,0,0,0-2-2,4.73,4.73,0,0,0-2.57,1.38,11.73,11.73,0,0,0-1.58,3.17c-1.19,4.94-2.77,9.68-3.56,14.63-2.38,13.05-4.35,26.3-6.53,39.35Q172,436.71,170,446.8a21.89,21.89,0,0,1-1.18,5.14c-1.39,3.76-4.35,4.74-8.31,3.56-13.25-3.56-10.87-41.13-9.09-58.14,1.18-9.49,2.37-19.18,3.75-28.67.79-6.13,4.35-8.3,10.28-6.92,4.55,1,7.91,3.16,9.1,7.91.4,1.58,1,2.17,1.58,2.17C177.67,372.05,179.65,368.89,180.44,367.11Z" transform="translate(-139.7 -47.7)"/><path class="cls-1" d="M250.05,434.23c5.73-13.25,6.13-28,7.32-42.39.59-6,1.38-11.92,2-17.89.6-5.3,1.19-11.48,4.75-15.23,4.15-4.64,10.48-3.09,12.26,3.31a28,28,0,0,1,.79,8.17c-1.19,20.09-2.57,40-2.18,60.06.2,3.09-.79,11.26,3,12.58,9.49,3.09,15.62-31.57,16.41-38.42.2-2,0-4.41,2.38-4.85,1.58-.45,3,1.76,3,4.85a96,96,0,0,1-5.53,28.93c-2.38,7.06-6.13,14.35-11.87,19-7.71,6-14-.89-20-6.85-4.94-5.08-9.89,7.07-14,9.28-5.54,2.87-12.06.44-15.62-4.64-6.73-9.5-6.92-22.3-5.93-33.78,1.38-17.67,3.95-35.33,4.35-53.22,0-5.52,1.78-7.72,6.72-7.94,6.52-.45,10.68,3.75,10.68,11.48-.2,13-1.19,26.05-2,39.08-.2,4-4,32.68.79,32.9C248.47,438.87,249.46,435.33,250.05,434.23Z" transform="translate(-139.7 -47.7)"/><path class="cls-1" d="M295.57,382.1c.31-7.17-8.7-6.56-13.89-7.78a25.84,25.84,0,0,0-8.39-.31c-1.22.16-3.36.46-4.12-.76-1.22-1.83,1.07-3.51,2.75-3.81a19.63,19.63,0,0,1,5.95-.46c4.73.46,9.46,1.22,14.19,2,3.67.46,4.58-.15,5.19-3.81.46-2.6.76-5.19,1.22-7.79.61-3.51,2.14-4.88,5.8-5.18,6-.31,9.46,2.74,9.62,8.69,0,1.53-.16,3.06-.31,4.58-.15,6.87,10.07,3.36,13,1.07,2-1.68,5.19-6.87,7.63-3.51.92,1.07.61,2.29.16,3.51a7.27,7.27,0,0,1-3.82,4.12,90.48,90.48,0,0,1-8.85,3.51,47.15,47.15,0,0,1-4.88,1.53c-3.06.61-4.43,2.59-4.58,5.49-.46,4.43-1.07,8.85-1.22,13.13-.77,14-2.6,28.23-1.83,42.27.15,4.43,2.28,12.67,7.63,6.87,7.17-7.79,8.39-20.6,10.83-30.52a8.19,8.19,0,0,1,.92-2.75,1.68,1.68,0,0,1,3,0,10,10,0,0,1,.61,2.9,55,55,0,0,1-4.27,23.81c-2.6,6.1-6.11,13.27-12.52,16.17-7.48,3.36-15.26-2.9-18.46-9.31-4-8.24-4-18.77-3.82-27.77C293.28,406.06,295,394,295.57,382.1Z" transform="translate(-139.7 -47.7)"/><path class="cls-1" d="M329.15,382.1c.3-7.17-8.7-6.56-13.89-7.78a25.85,25.85,0,0,0-8.39-.31c-1.23.16-3.36.46-4.13-.76-1.22-1.83,1.07-3.51,2.75-3.81a19.66,19.66,0,0,1,5.95-.46c4.73.46,9.47,1.22,14.2,2,3.66.46,4.57-.15,5.19-3.81.45-2.6.76-5.19,1.22-7.79.61-3.51,2.13-4.88,5.8-5.18,5.95-.31,9.46,2.74,9.61,8.69,0,1.53-.15,3.06-.3,4.58-.16,6.87,10.07,3.36,13,1.07,2-1.68,5.19-6.87,7.63-3.51.91,1.07.61,2.29.15,3.51a7.21,7.21,0,0,1-3.82,4.12,88.53,88.53,0,0,1-8.85,3.51,45.67,45.67,0,0,1-4.88,1.53c-3.05.61-4.43,2.59-4.58,5.49-.46,4.43-1.07,8.85-1.22,13.13-.76,14-2.59,28.23-1.83,42.27.15,4.43,2.29,12.67,7.63,6.87,7.17-7.79,8.39-20.6,10.84-30.52a8.18,8.18,0,0,1,.91-2.75,1.68,1.68,0,0,1,3.05,0,9.64,9.64,0,0,1,.61,2.9,54.87,54.87,0,0,1-4.27,23.81c-2.59,6.1-6.1,13.27-12.51,16.17-7.48,3.36-15.27-2.9-18.47-9.31-4-8.24-4-18.77-3.82-27.77C326.86,406.06,328.54,394,329.15,382.1Z" transform="translate(-139.7 -47.7)"/></svg>