<?xml version="1.0" encoding="utf-8"?>
<!-- Generator: Adobe Illustrator 22.0.0, SVG Export Plug-In . SVG Version: 6.00 Build 0)  -->
<svg version="1.1" xmlns="http://www.w3.org/2000/svg" xmlns:xlink="http://www.w3.org/1999/xlink" x="0px" y="0px"
	 viewBox="0 0 512 512" style="enable-background:new 0 0 512 512;" xml:space="preserve">
<style type="text/css">
	.st0{fill:#915041;}
	.st1{fill:#61362B;}
	.st2{fill:#9E0B35;}
	.st3{fill:#B27A49;}
	.st4{fill:#B71148;}
	.st5{fill:#CC0E6E;}
	.st6{font-family:'SignPainter-HouseScript';}
	.st7{font-size:197.745px;}
</style>
<g id="Layer_1">
	<path class="st0" d="M262,93c-5.6,0-10.2-4.5-10.2-10.2V57.9c0-5.6,4.5-10.2,10.2-10.2c5.6,0,10.2,4.5,10.2,10.2v24.9
		C272.2,88.4,267.7,93,262,93z"/>
	<path class="st1" d="M262,93c5.6,0,10.2-4.5,10.2-10.2V57.9c0-5.6-4.5-10.2-10.2-10.2V93z"/>
	<path class="st2" d="M262.1,323.9c-1,0-2-0.2-3-0.5c-34.3-11-63.3-30.1-82.8-53.7c-17.8-21.6-27.1-47-27.1-73.5v-21.7
		c0-5.4,4.4-9.8,9.8-9.8h207.5c5.4,0,9.8,4.4,9.8,9.8v21.7c0,26.1-9.6,51.5-27.6,73.2c-19.7,23.7-49.8,42.9-83.5,54
		C264.1,323.8,263.1,323.9,262.1,323.9z"/>
	<path class="st3" d="M262,72.6V217c2.6,0,5.3-1,7.3-3l34.7-35.2l36.6,35.4c2,1.9,4.5,2.9,7.1,2.9c2.2,0,4.5-0.7,6.4-2.2l30.2-24
		C382.2,125,328.2,72.7,262,72.6z"/>
	<path class="st4" d="M366.5,164.7H262.1v159.2c1,0,2.1-0.2,3.1-0.5c33.7-11.1,63.8-30.2,83.5-54c18.1-21.8,27.6-47.1,27.6-73.2
		v-21.7C376.3,169.1,371.9,164.7,366.5,164.7z"/>
	<path class="st5" d="M262,72.6V217c2.6,0,5.3-1,7.3-3l34.7-35.2l36.6,35.4c2,1.9,4.5,2.9,7.1,2.9c2.2,0,4.5-0.7,6.4-2.2l30.2-24
		C382.2,125,328.2,72.7,262,72.6z"/>
	<path class="st4" d="M139.7,190.7l30.2,24c1.9,1.5,4.1,2.2,6.4,2.2c2.6,0,5.1-1,7.1-2.9l36.6-35.4l34.7,35.2c2,2,4.6,3,7.3,3V72.6
		C195.9,72.7,141.9,125,139.7,190.7z"/>
	<text transform="matrix(1 0 0 1 139.7215 430.2103)" class="st5 st6 st7">nutt</text>
</g>
<g id="shade">
</g>
</svg>
