<?xml version="1.0" encoding="utf-8"?>
<!-- Generator: Adobe Illustrator 22.0.0, SVG Export Plug-In . SVG Version: 6.00 Build 0)  -->
<svg version="1.1" id="Layer_1" xmlns="http://www.w3.org/2000/svg" xmlns:xlink="http://www.w3.org/1999/xlink" x="0px" y="0px"
	 viewBox="0 0 512 512" style="enable-background:new 0 0 512 512;" xml:space="preserve">
<style type="text/css">
	.st0{fill:#EE4B6B;}
	.st1{fill:#D8395F;}
</style>
<path class="st0" d="M262,93c-5.6,0-10.2-4.5-10.2-10.2V57.9c0-5.6,4.5-10.2,10.2-10.2c5.6,0,10.2,4.5,10.2,10.2v24.9
	C272.2,88.4,267.7,93,262,93z"/>
<path class="st0" d="M262,93c5.6,0,10.2-4.5,10.2-10.2V57.9c0-5.6-4.5-10.2-10.2-10.2V93z"/>
<path class="st1" d="M262.1,323.9c-1,0-2-0.2-3-0.5c-34.3-11-63.3-30.1-82.8-53.7c-17.8-21.6-27.1-47-27.1-73.5v-21.7
	c0-5.4,4.4-9.8,9.8-9.8h207.5c5.4,0,9.8,4.4,9.8,9.8v21.7c0,26.1-9.6,51.5-27.6,73.2c-19.7,23.7-49.8,42.9-83.5,54
	C264.1,323.8,263.1,323.9,262.1,323.9z"/>
<path class="st0" d="M262,72.6V217c2.6,0,5.3-1,7.3-3l34.7-35.2l36.6,35.4c2,1.9,4.5,2.9,7.1,2.9c2.2,0,4.5-0.7,6.4-2.2l30.2-24
	C382.2,125,328.2,72.7,262,72.6z"/>
<path class="st1" d="M366.5,164.7H262.1v159.2c1,0,2.1-0.2,3.1-0.5c33.7-11.1,63.8-30.2,83.5-54c18.1-21.8,27.6-47.1,27.6-73.2
	v-21.7C376.3,169.1,371.9,164.7,366.5,164.7z"/>
<path class="st0" d="M262,72.6V217c2.6,0,5.3-1,7.3-3l34.7-35.2l36.6,35.4c2,1.9,4.5,2.9,7.1,2.9c2.2,0,4.5-0.7,6.4-2.2l30.2-24
	C382.2,125,328.2,72.7,262,72.6z"/>
<path class="st0" d="M139.7,190.7l30.2,24c1.9,1.5,4.1,2.2,6.4,2.2c2.6,0,5.1-1,7.1-2.9l36.6-35.4l34.7,35.2c2,2,4.6,3,7.3,3V72.6
	C195.9,72.7,141.9,125,139.7,190.7z"/>
<path class="st1" d="M180.4,367.1c4.2-7.1,8.9-13.8,18.4-11.5c6.9,1.8,10.7,6.5,10.7,14.2c0.2,12.3,0,24.5-0.2,36.8
	c-0.2,9.7-0.8,19.4-1.2,29.3c-0.2,6.5,3.2,6.9,6.9,2c6.9-9.7,12.9-20.6,16-32c0.2-0.6,0.4-1.4,0.8-2.2c0.6-1.4,1.6-2.6,3.4-2.2
	c1.8,0.2,2.8,1.4,3,3.2c0.2,1.6,0.2,3.4-0.4,4.9c-2.8,9.5-6.9,18.2-11.9,26.5c-4.2,6.9-8.1,16.2-16.2,18.6
	c-19.4,5.7-21.2-19.2-21.6-30.6c-0.4-7.3,2.4-46.3,1.6-54c0-0.8-1.2-2-2-2s-2,0.8-2.6,1.4c-0.8,1-1.2,2.2-1.6,3.2
	c-1.2,4.9-2.8,9.7-3.6,14.6c-2.4,13.1-4.4,26.3-6.5,39.3c-1,6.7-2.2,13.4-3.6,20.2c-0.2,1.8-0.6,3.6-1.2,5.1
	c-1.4,3.8-4.4,4.7-8.3,3.6c-13.2-3.6-10.9-41.1-9.1-58.1c1.2-9.5,2.4-19.2,3.8-28.7c0.8-6.1,4.4-8.3,10.3-6.9c4.5,1,7.9,3.2,9.1,7.9
	c0.4,1.6,1,2.2,1.6,2.2C177.7,372.1,179.7,368.9,180.4,367.1z"/>
<path class="st1" d="M250,434.2c5.7-13.2,6.1-28,7.3-42.4c0.6-6,1.4-11.9,2-17.9c0.6-5.3,1.2-11.5,4.7-15.2
	c4.2-4.6,10.5-3.1,12.3,3.3c0.8,2.4,0.8,5.5,0.8,8.2c-1.2,20.1-2.6,40-2.2,60.1c0.2,3.1-0.8,11.3,3,12.6
	c9.5,3.1,15.6-31.6,16.4-38.4c0.2-2,0-4.4,2.4-4.9c1.6-0.4,3,1.8,3,4.9c-0.2,9.9-2.4,19.7-5.5,28.9c-2.4,7.1-6.1,14.4-11.9,19
	c-7.7,6-14-0.9-20-6.8c-4.9-5.1-9.9,7.1-14,9.3c-5.5,2.9-12.1,0.4-15.6-4.6c-6.7-9.5-6.9-22.3-5.9-33.8c1.4-17.7,4-35.3,4.4-53.2
	c0-5.5,1.8-7.7,6.7-7.9c6.5-0.4,10.7,3.8,10.7,11.5c-0.2,13-1.2,26.1-2,39.1c-0.2,4-4,32.7,0.8,32.9
	C248.5,438.9,249.5,435.3,250,434.2z"/>
<path class="st1" d="M295.6,382.1c0.3-7.2-8.7-6.6-13.9-7.8c-2.9-0.6-5.3-0.6-8.4-0.3c-1.2,0.2-3.4,0.5-4.1-0.8
	c-1.2-1.8,1.1-3.5,2.7-3.8c2-0.5,4-0.6,6-0.5c4.7,0.5,9.5,1.2,14.2,2c3.7,0.5,4.6-0.2,5.2-3.8c0.5-2.6,0.8-5.2,1.2-7.8
	c0.6-3.5,2.1-4.9,5.8-5.2c6-0.3,9.5,2.7,9.6,8.7c0,1.5-0.2,3.1-0.3,4.6c-0.2,6.9,10.1,3.4,13,1.1c2-1.7,5.2-6.9,7.6-3.5
	c0.9,1.1,0.6,2.3,0.2,3.5c-0.8,1.8-2,3.4-3.8,4.1c-2.9,1.4-5.8,2.4-8.9,3.5c-1.5,0.6-3.2,1.1-4.9,1.5c-3.1,0.6-4.4,2.6-4.6,5.5
	c-0.5,4.4-1.1,8.9-1.2,13.1c-0.8,14-2.6,28.2-1.8,42.3c0.2,4.4,2.3,12.7,7.6,6.9c7.2-7.8,8.4-20.6,10.8-30.5c0.2-0.9,0.5-2,0.9-2.7
	c0.9-1.4,2.3-1.2,3.1,0c0.3,0.9,0.6,2,0.6,2.9c0.3,8.2-1.1,16.3-4.3,23.8c-2.6,6.1-6.1,13.3-12.5,16.2c-7.5,3.4-15.3-2.9-18.5-9.3
	c-4-8.2-4-18.8-3.8-27.8C293.3,406.1,295,394,295.6,382.1z"/>
<path class="st1" d="M329.1,382.1c0.3-7.2-8.7-6.6-13.9-7.8c-2.9-0.6-5.3-0.6-8.4-0.3c-1.2,0.2-3.4,0.5-4.1-0.8
	c-1.2-1.8,1.1-3.5,2.7-3.8c2-0.5,4-0.6,6-0.5c4.7,0.5,9.5,1.2,14.2,2c3.7,0.5,4.6-0.2,5.2-3.8c0.5-2.6,0.8-5.2,1.2-7.8
	c0.6-3.5,2.1-4.9,5.8-5.2c6-0.3,9.5,2.7,9.6,8.7c0,1.5-0.2,3.1-0.3,4.6c-0.2,6.9,10.1,3.4,13,1.1c2-1.7,5.2-6.9,7.6-3.5
	c0.9,1.1,0.6,2.3,0.2,3.5c-0.8,1.8-2,3.4-3.8,4.1c-2.9,1.4-5.8,2.4-8.9,3.5c-1.5,0.6-3.2,1.1-4.9,1.5c-3.1,0.6-4.4,2.6-4.6,5.5
	c-0.5,4.4-1.1,8.9-1.2,13.1c-0.8,14-2.6,28.2-1.8,42.3c0.2,4.4,2.3,12.7,7.6,6.9c7.2-7.8,8.4-20.6,10.8-30.5c0.2-0.9,0.5-2,0.9-2.7
	c0.9-1.4,2.3-1.2,3.1,0c0.3,0.9,0.6,2,0.6,2.9c0.3,8.2-1.1,16.3-4.3,23.8c-2.6,6.1-6.1,13.3-12.5,16.2c-7.5,3.4-15.3-2.9-18.5-9.3
	c-4-8.2-4-18.8-3.8-27.8C326.9,406.1,328.5,394,329.1,382.1z"/>
<g id="shade">
</g>
</svg>
