<svg id="Layer_1" data-name="Layer 1" xmlns="http://www.w3.org/2000/svg" viewBox="0 0 592.04 827.17"><defs><style>.cls-1{font-size:184.49px;stroke:#000;stroke-miterlimit:10;stroke-width:4px;font-family:QuesatBlackDemo, Quesat Black Demo;}</style></defs><title>logo</title><text class="cls-1" transform="translate(46.13 764.91)">Hooker</text><path d="M647.94,157.67v-83a26.91,26.91,0,0,0-53.82,0v83C517.85,170.52,459.56,237,459.56,316.88a107.65,107.65,0,0,1-215.29,0,26.91,26.91,0,1,0-53.82,0c0,163.22,132.8,296,296,296s296-132.8,296-296C782.5,237,724.21,170.52,647.94,157.67ZM486.48,559.08a241.89,241.89,0,0,1-188.19-89.89,160.73,160.73,0,0,0,53.63,9.15c89,0,161.47-72.43,161.47-161.46A107.7,107.7,0,0,1,571,221.6l-15.21,30.09c-6.71,13.27,22.85.52,36.12,7.23,3.89,2,1.56-6.51,5.64-6.51,9.83,0,12.77-1.23,17.5-10.6L621,242l16.49,16.94c4.74,9.37,12.74-1.3,22.57-1.3,4.09,0,2.62,4.57,6.52,2.6,13.26-6.7,26.34,4.74,19.63-8.53L671,221.59a107.73,107.73,0,0,1,57.65,95.29C728.68,450.43,620,559.08,486.48,559.08Z" transform="translate(-190.45 -47.77)"/><path d="M620.84,241.81c0,23.63-19.16,39.31-42.78,39.31s-42.78-15.68-42.78-39.31a42.78,42.78,0,0,1,85.56,0Z" transform="translate(-190.45 -47.77)"/><path d="M700.64,241.81c0,23.63-19.15,39.31-42.78,39.31s-42.78-15.68-42.78-39.31a42.78,42.78,0,0,1,85.56,0Z" transform="translate(-190.45 -47.77)"/><path d="M573.43,280a5.59,5.59,0,1,1-11.18,0c0-3.09,2.5-2.13,5.59-2.13S573.43,276.88,573.43,280Z" transform="translate(-190.45 -47.77)"/><path d="M677.14,278.81a5.59,5.59,0,0,1-11.18,0c0-3.09,2.5-2.12,5.59-2.12S677.14,275.72,677.14,278.81Z" transform="translate(-190.45 -47.77)"/></svg>