<?xml version="1.0" encoding="utf-8"?>
<!-- Generator: Adobe Illustrator 24.0.1, SVG Export Plug-In . SVG Version: 6.00 Build 0)  -->
<svg version="1.1" id="Layer_1" xmlns="http://www.w3.org/2000/svg" xmlns:xlink="http://www.w3.org/1999/xlink" x="0px" y="0px"
	 viewBox="0 0 592 827.2" style="enable-background:new 0 0 592 827.2;" xml:space="preserve">
<style type="text/css">
	.st0{font-family:'QuesatBlackDemo';}
	.st1{font-size:184.49px;}
</style>
<title>logo</title>
<text transform="matrix(1 0 0 1 24.13 756.91)" class="st0 st1">Hookup</text>
<path d="M457.5,109.9v-83c0-14.9-12-26.9-26.9-26.9c-14.9,0-26.9,12-26.9,26.9v83c-76.3,12.9-134.6,79.3-134.6,159.2
	c-0.6,59.5-49.2,107.2-108.7,106.6c-58.6-0.6-106-48-106.6-106.6c0-14.9-12-26.9-26.9-26.9c-14.9,0-26.9,12-26.9,26.9c0,0,0,0,0,0
	c0,163.2,132.8,296,296,296s296-132.8,296-296C592,189.2,533.8,122.8,457.5,109.9z M296,511.3c-73.1,0-142.3-33-188.2-89.9
	c17.2,6.1,35.4,9.2,53.6,9.1c89,0,161.5-72.4,161.5-161.5c0-40,22.2-76.7,57.6-95.3l-15.2,30.1c-6.7,13.3,22.8,0.5,36.1,7.2
	c3.9,2,1.6-6.5,5.6-6.5c9.8,0,12.8-1.2,17.5-10.6l6,0.2l16.5,16.9c4.7,9.4,12.7-1.3,22.6-1.3c4.1,0,2.6,4.6,6.5,2.6
	c13.3-6.7,26.3,4.7,19.6-8.5l-15.2-30.1c35.4,18.6,57.6,55.3,57.7,95.3C538.2,402.7,429.5,511.3,296,511.3z"/>
<path d="M430.4,194c0,23.6-19.2,39.3-42.8,39.3s-42.8-15.7-42.8-39.3c0-23.6,19.2-42.8,42.8-42.8C411.2,151.3,430.4,170.4,430.4,194
	z"/>
<path d="M510.2,194c0,23.6-19.2,39.3-42.8,39.3s-42.8-15.7-42.8-39.3c0-23.6,19.2-42.8,42.8-42.8C491,151.3,510.2,170.4,510.2,194
	L510.2,194z"/>
<path d="M383,232.2c0,3.1-2.5,5.6-5.6,5.6s-5.6-2.5-5.6-5.6c0,0,0,0,0,0c0-3.1,2.5-2.1,5.6-2.1S383,229.1,383,232.2z"/>
<path d="M486.7,231c0,3.1-2.5,5.6-5.6,5.6c-3.1,0-5.6-2.5-5.6-5.6c0-3.1,2.5-2.1,5.6-2.1S486.7,227.9,486.7,231z"/>
</svg>
